<?xml version="1.0" encoding="UTF-8"?><svg id="Livello_1" xmlns="http://www.w3.org/2000/svg" viewBox="0 0 917.8 265.4"><defs><style>.cls-1{fill:#cc1719;}</style></defs><g><path class="cls-1" d="m21.9,250.9c0,2.5-.9,4.4-2.7,5.7-1.8,1.3-4.5,2-8.1,2-3.2,0-5.8-.6-7.6-1.7-1.8-1.1-3-2.9-3.5-5.2l5.1-.8c.3,1.3,1,2.3,2,2.9,1,.6,2.4.9,4.2.9,3.7,0,5.5-1.1,5.5-3.4,0-.7-.2-1.3-.6-1.8s-1-.9-1.8-1.2-2.2-.7-4.4-1.1c-1.9-.4-3.2-.8-3.9-1.1-.7-.3-1.4-.6-2-.9-.6-.4-1.1-.8-1.5-1.3s-.7-1.1-1-1.8c-.2-.7-.3-1.5-.3-2.4,0-2.3.9-4,2.6-5.2s4.2-1.8,7.5-1.8c3.1,0,5.5.5,7,1.5,1.6,1,2.6,2.6,3,4.9l-5.1.7c-.3-1.1-.8-1.9-1.6-2.5-.8-.5-2-.8-3.5-.8-3.2,0-4.8,1-4.8,3,0,.7.2,1.2.5,1.6.3.4.8.8,1.5,1.1s2,.7,4.1,1.1c2.4.5,4.2,1,5.2,1.4s1.9.9,2.5,1.5,1.1,1.3,1.4,2.1c.1.6.3,1.5.3,2.6Z"/><path class="cls-1" d="m28.9,258.1v-25.2h19.8v4.1h-14.6v6.3h13.5v4.1h-13.5v6.6h15.3v4.1h-20.5Z"/><path class="cls-1" d="m74.4,258.1l-2.2-6.4h-9.6l-2.2,6.4h-5.3l9.2-25.2h6.2l9.2,25.2h-5.3Zm-7-21.3l-.1.4c-.1.4-.3.9-.4,1.5-.2.5-1.2,3.6-3.1,9.1h7.3l-2.5-7.3-.8-2.4-.4-1.3Z"/><path class="cls-1" d="m107.2,258.1v-16.3c0-.3.1-1.8.2-4.5-.8,3.2-1.5,5.4-1.9,6.7l-4.5,14.1h-3.8l-4.5-14.1-1.9-6.7c.1,2.8.2,4.6.2,5.5v15.3h-4.7v-25.2h7.1l4.5,14.1.4,1.4.9,3.4,1.1-4,4.6-14.8h7v25.2h-4.7v-.1Z"/><path class="cls-1" d="m120,258.1v-25.2h5.3v21.1h13.5v4.1h-18.8Z"/><path class="cls-1" d="m145.6,258.1v-25.2h19.8v4.1h-14.5v6.3h13.5v4.1h-13.5v6.6h15.3v4.1h-20.6Z"/><path class="cls-1" d="m193.8,250.9c0,2.5-.9,4.4-2.7,5.7-1.8,1.3-4.5,2-8.1,2-3.2,0-5.8-.6-7.6-1.7-1.8-1.1-3-2.9-3.5-5.2l5.1-.8c.3,1.3,1,2.3,2,2.9s2.4.9,4.2.9c3.7,0,5.5-1.1,5.5-3.4,0-.7-.2-1.3-.6-1.8s-1-.9-1.8-1.2-2.2-.7-4.4-1.1c-1.9-.4-3.2-.8-3.9-1.1-.7-.3-1.4-.6-2-.9-.6-.4-1.1-.8-1.5-1.3s-.7-1.1-1-1.8c-.2-.7-.3-1.5-.3-2.4,0-2.3.9-4,2.6-5.2,1.7-1.2,4.2-1.8,7.5-1.8,3.1,0,5.5.5,7,1.5,1.6,1,2.6,2.6,3,4.9l-5.1.7c-.3-1.1-.8-1.9-1.6-2.5-.8-.5-2-.8-3.5-.8-3.2,0-4.8,1-4.8,3,0,.7.2,1.2.5,1.6.3.4.8.8,1.5,1.1s2,.7,4.1,1.1c2.4.5,4.2,1,5.2,1.4s1.9.9,2.5,1.5,1.1,1.3,1.4,2.1c.2.6.3,1.5.3,2.6Z"/><path class="cls-1" d="m221.5,250.9c0,2.5-.9,4.4-2.7,5.7-1.8,1.3-4.5,2-8.1,2-3.2,0-5.8-.6-7.6-1.7-1.8-1.1-3-2.9-3.5-5.2l5.1-.8c.3,1.3,1,2.3,2,2.9,1,.6,2.4.9,4.2.9,3.7,0,5.5-1.1,5.5-3.4,0-.7-.2-1.3-.6-1.8s-1-.9-1.8-1.2-2.2-.7-4.4-1.1c-1.9-.4-3.2-.8-3.9-1.1-.7-.3-1.4-.6-2-.9-.6-.4-1.1-.8-1.5-1.3s-.7-1.1-1-1.8c-.2-.7-.3-1.5-.3-2.4,0-2.3.9-4,2.6-5.2s4.2-1.8,7.5-1.8c3.1,0,5.5.5,7,1.5,1.6,1,2.6,2.6,3,4.9l-5.1.7c-.3-1.1-.8-1.9-1.6-2.5-.8-.5-2-.8-3.5-.8-3.2,0-4.8,1-4.8,3,0,.7.2,1.2.5,1.6.3.4.8.8,1.5,1.1s2,.7,4.1,1.1c2.4.5,4.2,1,5.2,1.4s1.9.9,2.5,1.5,1.1,1.3,1.4,2.1c.1.6.3,1.5.3,2.6Z"/><path class="cls-1" d="m247.7,258.1v-25.2h5.3v25.2h-5.3Z"/><path class="cls-1" d="m276.4,258.1l-11-19.4c.2,1.9.3,3.4.3,4.5v14.9h-4.7v-25.2h6l11.2,19.6c-.2-1.8-.3-3.4-.3-4.9v-14.7h4.7v25.2h-6.2Z"/><path class="cls-1" d="m306.1,258.1l-11-19.4c.2,1.9.3,3.4.3,4.5v14.9h-4.7v-25.2h6l11.2,19.6c-.2-1.8-.3-3.4-.3-4.9v-14.7h4.7v25.2h-6.2Z"/><path class="cls-1" d="m344.9,245.4c0,2.6-.5,4.9-1.6,6.9-1,2-2.5,3.5-4.5,4.6-1.9,1.1-4.2,1.6-6.8,1.6-4,0-7.1-1.2-9.3-3.5-2.3-2.3-3.4-5.5-3.4-9.6s1.1-7.2,3.4-9.5c2.2-2.3,5.4-3.4,9.4-3.4s7.1,1.1,9.4,3.4c2.3,2.4,3.4,5.5,3.4,9.5Zm-5.4,0c0-2.7-.6-4.9-1.9-6.4s-3.1-2.3-5.4-2.3-4.2.8-5.5,2.3-1.9,3.7-1.9,6.4.7,5,2,6.5c1.3,1.6,3.1,2.4,5.4,2.4s4.2-.8,5.5-2.3,1.8-3.7,1.8-6.6Z"/><path class="cls-1" d="m364.6,258.1h-5.4l-9.3-25.2h5.5l5.2,16.2c.3,1.1.8,2.6,1.3,4.8l.4-1.5.9-3.2,5.2-16.2h5.5l-9.3,25.1Z"/><path class="cls-1" d="m394.9,258.1l-2.2-6.4h-9.6l-2.2,6.4h-5.3l9.2-25.2h6.2l9.2,25.2h-5.3Zm-7.1-21.3l-.1.4c-.1.4-.3.9-.4,1.5-.2.5-1.2,3.6-3.1,9.1h7.3l-2.5-7.3-.8-2.4-.4-1.3Z"/><path class="cls-1" d="m415.4,237v21.1h-5.3v-21.1h-8.2v-4.1h21.6v4.1h-8.1Z"/><path class="cls-1" d="m429.6,258.1v-25.2h5.3v25.2h-5.3Z"/><path class="cls-1" d="m467.5,245.4c0,2.6-.5,4.9-1.6,6.9-1,2-2.5,3.5-4.5,4.6s-4.2,1.6-6.8,1.6c-4,0-7.1-1.2-9.3-3.5-2.3-2.3-3.4-5.5-3.4-9.6s1.1-7.2,3.4-9.5c2.2-2.3,5.4-3.4,9.4-3.4s7.1,1.1,9.4,3.4c2.3,2.4,3.4,5.5,3.4,9.5Zm-5.4,0c0-2.7-.6-4.9-1.9-6.4-1.3-1.5-3.1-2.3-5.4-2.3s-4.2.8-5.5,2.3-1.9,3.7-1.9,6.4.7,5,2,6.5c1.3,1.6,3.1,2.4,5.4,2.4s4.2-.8,5.5-2.3,1.8-3.7,1.8-6.6Z"/><path class="cls-1" d="m490,258.1l-11-19.4c.2,1.9.3,3.4.3,4.5v14.9h-4.7v-25.2h6l11.2,19.6c-.2-1.8-.3-3.4-.3-4.9v-14.7h4.7v25.2h-6.2Z"/><path class="cls-1" d="m528.7,237v7.8h12.9v4.1h-12.9v9.3h-5.3v-25.2h18.6v4.1h-13.3v-.1Z"/><path class="cls-1" d="m573.6,245.4c0,2.6-.5,4.9-1.6,6.9-1,2-2.5,3.5-4.5,4.6-1.9,1.1-4.2,1.6-6.8,1.6-4,0-7.1-1.2-9.3-3.5s-3.4-5.5-3.4-9.6,1.1-7.2,3.4-9.5c2.2-2.3,5.4-3.4,9.4-3.4s7.1,1.1,9.4,3.4c2.2,2.4,3.4,5.5,3.4,9.5Zm-5.4,0c0-2.7-.6-4.9-1.9-6.4-1.3-1.5-3.1-2.3-5.4-2.3s-4.2.8-5.5,2.3-1.9,3.7-1.9,6.4.7,5,2,6.5c1.3,1.6,3.1,2.4,5.4,2.4s4.2-.8,5.5-2.3c1.1-1.5,1.8-3.7,1.8-6.6Z"/><path class="cls-1" d="m598.1,258.1l-5.9-9.6h-6.2v9.6h-5.3v-25.2h12.6c3,0,5.3.6,7,1.9,1.6,1.3,2.5,3.2,2.5,5.6,0,1.8-.5,3.3-1.5,4.6s-2.4,2.1-4.1,2.5l6.8,10.6h-5.9Zm-.6-17.5c0-2.4-1.6-3.6-4.7-3.6h-6.8v7.4h6.9c1.5,0,2.6-.3,3.4-1,.8-.6,1.2-1.5,1.2-2.8Z"/><path class="cls-1" d="m629.5,258.1v-25.2h5.3v21.1h13.5v4.1h-18.8Z"/><path class="cls-1" d="m655.1,258.1v-25.2h5.3v25.2h-5.3Z"/><path class="cls-1" d="m673.8,237v7.8h12.9v4.1h-12.9v9.3h-5.3v-25.2h18.6v4.1h-13.3v-.1Z"/><path class="cls-1" d="m694.1,258.1v-25.2h19.8v4.1h-14.6v6.3h13.5v4.1h-13.5v6.6h15.3v4.1h-20.5Z"/><path class="cls-1" d="m765.4,245.4c0,3.4-.8,6.2-2.5,8.4s-4,3.7-6.9,4.3c.4,1.2,1,2,1.7,2.6.7.5,1.8.8,3.1.8.7,0,1.4-.1,2.1-.2v3.6c-1.5.3-2.9.5-4.3.5-1.9,0-3.6-.5-4.8-1.6-1.3-1.1-2.3-2.9-3.1-5.4-3.4-.3-6-1.6-7.9-3.9-1.9-2.3-2.8-5.3-2.8-9,0-4,1.1-7.2,3.4-9.5,2.2-2.3,5.4-3.4,9.4-3.4s7.1,1.1,9.4,3.4c2.1,2.3,3.2,5.4,3.2,9.4Zm-5.4,0c0-2.7-.6-4.9-1.9-6.4-1.3-1.5-3.1-2.3-5.4-2.3s-4.2.8-5.5,2.3-1.9,3.7-1.9,6.4.7,5,2,6.6,3.1,2.4,5.4,2.4,4.2-.8,5.5-2.3c1.2-1.6,1.8-3.8,1.8-6.7Z"/><path class="cls-1" d="m783.1,258.5c-3.5,0-6.1-.8-8-2.5-1.8-1.7-2.8-4.1-2.8-7.3v-15.8h5.3v15.4c0,2,.5,3.5,1.4,4.5s2.3,1.5,4.2,1.5,3.3-.5,4.4-1.6c1-1.1,1.5-2.6,1.5-4.6v-15.2h5.3v15.5c0,3.2-1,5.7-3,7.4-2,1.8-4.7,2.7-8.3,2.7Z"/><path class="cls-1" d="m820.1,258.1l-2.2-6.4h-9.6l-2.2,6.4h-5.3l9.2-25.2h6.2l9.2,25.2h-5.3Zm-7.1-21.3l-.1.4c-.1.4-.3.9-.4,1.5-.2.5-1.2,3.6-3.1,9.1h7.3l-2.5-7.3-.8-2.4-.4-1.3Z"/><path class="cls-1" d="m831.9,258.1v-25.2h5.3v21.1h13.5v4.1h-18.8Z"/><path class="cls-1" d="m857.5,258.1v-25.2h5.3v25.2h-5.3Z"/><path class="cls-1" d="m882.3,237v21.1h-5.3v-21.1h-8.1v-4.1h21.6v4.1h-8.2Z"/><path class="cls-1" d="m908.9,247.8v10.3h-5.3v-10.3l-9-14.9h5.5l6.1,10.7,6.1-10.7h5.5l-8.9,14.9Z"/></g><path class="cls-1" d="m916.6,176.7l-25.8-142.5c1.6-8.2-4.5-16.3-13.7-18.1l-78.5-13.4c-7.1-1.5-13.8,1.3-17.3,6.3-2.7,3-4.3,7.2-4.3,11.7v160.1c0,9.3,6.8,16.9,15,16.8,8.3,0,15-7.5,15-16.8v-66.6h43.1c9.3,0,16.9-6.7,16.9-15s-7.6-14.9-16.9-14.9h-43.1v-49.7l54.9,9.5,24.9,137.8c1.6,9.3,9.5,15.5,17.7,14,8.4-1.4,13.7-10.1,12.1-19.2m-266.8-27.6V49.5l85.6-18.7c9.2-2,15.2-10.2,13.4-18.3-1.8-8.1-10.6-13-19.7-11.2l-95.4,20.8c-.1,0-.2,0-.3.1-7.7.8-13.8,8.1-13.8,16.8v120.4c0,8.8,6.1,16,13.8,16.7.1,0,.2.1.3.1l95.4,21c9.1,1.9,17.9-3.1,19.7-11.2,1.7-8.2-4.3-16.3-13.4-18.3l-85.6-18.6Zm-62.1,31.7l-.1-160.1c0-9.3-6.7-16.8-14.9-16.8s-15,7.5-15,16.8v160.1c0,9.3,6.8,16.9,15,16.8,8.2,0,15-7.5,15-16.8m-56.2-18.9V36.5c.1-3.4-1.1-6.6-3.2-9.4-2.5-3.6-6.3-6-10.5-6.4-.1,0-.2-.1-.3-.1L421.7,2.6c-7.1-1.5-13.8,1.3-17.3,6.3-2.6,3-4.2,7.2-4.2,11.7v160.1c0,9.3,6.8,16.9,15,16.8,2.6,0,5-.7,7.1-2l95.2-17.9c.1,0,.2-.1.3-.1,4.7-.5,8.8-3.3,11.2-7.5,1.7-2.3,2.6-5.2,2.5-8.1m-30.1-11.6l-71.2,13.3V34.8l71.2,13.4v102.1Zm-231.2,13.3v-49.4c.4,0,.8.1,1.3.1h55.7c9.4,0,16.9-6.7,16.9-15s-7.5-14.9-16.9-14.9h-57v-49.5l81.8,15.4c9.1,1.9,17.9-3.4,19.4-11.5,1.6-8.2-4.5-16.2-13.7-17.9L261.7,2.9c-6.9-1.4-13.6,1.3-17.1,6.2-2.7,3-4.4,7.2-4.4,11.9v160.1c0,9.3,6.8,16.9,15,16.8,2.6,0,5-.7,7.1-2l95.5-17.9c9.2-1.7,15.3-9.9,13.7-17.9-1.5-8.2-10.3-13.3-19.4-11.4l-81.9,14.9Zm-61.4,10.6l-27.8-157.5c-.9-5.4-4.1-9.8-8.1-12.2-1-1.1-2.2-2.1-3.5-2.8-7.3-4-16.8-.6-21.3,7.5l-41.7,74.9L64.7,9.2C60.2,1,50.5-2.3,43.2,1.7c-.5.3-.9.6-1.4.9-6.6.8-12.4,6.4-13.8,14.1L.4,174.2c-1.6,9.3,3.6,17.9,11.8,19.3,8.2,1.5,16.1-4.9,17.8-14L52.8,49.6l38.1,68.5c3.3,6.1,9.5,9.5,15.4,9.2,6,.3,12.2-3.1,15.5-9.2l35.4-63.6,22.1,124.9c1.6,9.1,9.5,15.5,17.8,14,8.1-1.3,13.4-9.9,11.7-19.2"/></svg>